# xmcd
#
# Track frame offsets:
#	150
#	19644
#	30849
#	45220
#	61435
#	80595
#	96240
#	114406
#	125472
#	141384
#	156168
#	169702
#	183433
#	202035
#
# Disc length: 2876
#
# Revision: 1
# Processed by: cddbd v1.5.1PL0 Copyright (c) Steve Scherf et al.
# Submitted via: FreeRIP 2.90 
# Normalized: r0:DSETVAR2,TDELIM( - )
#
DISCID=b30b3a0e
DTITLE=Various Artist - Rodeo Hits
DYEAR=1996
DGENRE=Country
TTITLE0=The Mavericks - All You Ever Do Is Bring Me Down
TTITLE1=David Lee Murphy - Out With A Bang
TTITLE2=Vince Gill - One More Last Chance
TTITLE3=George Strait - Adalida
TTITLE4=Tracy Byrd - Watermelon Crawl (Dance Mix)
TTITLE5=Reba McEntire - Why Havent I Heard From You
TTITLE6=Marty Stuart - If Aint Got You (Club Mix)
TTITLE7=George Jones - High Tech Redneck
TTITLE8=Mark Chessnutt - Going Through The Big D (Club Mix)
TTITLE9=David Lee Murphy - Dust in The Bootle (Remix Edit)
TTITLE10=Trisha Yearwood - I Wanna Go Far
TTITLE11=Vince Gill - What The Cowgirls Do
TTITLE12=Rodney Crowel - Let The Picture Paint Itself
TTITLE13=George Strait - Easy Come, Easy Go
EXTD=
EXTT0=
EXTT1=
EXTT2=
EXTT3=
EXTT4=
EXTT5=
EXTT6=
EXTT7=
EXTT8=
EXTT9=
EXTT10=
EXTT11=
EXTT12=
EXTT13=
PLAYORDER=
